<?xml version="1.0" encoding="utf-8"?>
<svg version="1.1" xmlns:xlink="http://www.w3.org/1999/xlink" width="1920px" height="170px" xmlns="http://www.w3.org/2000/svg">
  <g>
    <path d="M 1 5.000000000000001  A 4 4 0 0 1 4.999999999999999 1 L 1915 1  A 4 4 0 0 1 1919 5 L 1919 165  A 4 4 0 0 1 1915 169 L 5 169  A 4 4 0 0 1 1 165 L 1 5  Z " fill-rule="nonzero" fill="#1e73be" stroke="none" fill-opacity="0.5372549019607843" />
    <path d="M 0.5 5.000000000000001  A 4.5 4.5 0 0 1 4.999999999999999 0.5 L 1915 0.5  A 4.5 4.5 0 0 1 1919.5 5 L 1919.5 165  A 4.5 4.5 0 0 1 1915 169.5 L 5 169.5  A 4.5 4.5 0 0 1 0.5 165 L 0.5 5  Z " stroke-width="1" stroke="#016fa0" fill="none" stroke-opacity="0.13725490196078433" />
  </g>
</svg>