<?xml version="1.0" encoding="utf-8"?>
<svg version="1.1" xmlns:xlink="http://www.w3.org/1999/xlink" width="920px" height="393px" xmlns="http://www.w3.org/2000/svg">
  <g transform="matrix(1 0 0 1 -541 -195 )">
    <path d="M 542 200  A 4 4 0 0 1 546 196 L 1456 196  A 4 4 0 0 1 1460 200 L 1460 583  A 4 4 0 0 1 1456 587 L 546 587  A 4 4 0 0 1 542 583 L 542 200  Z " fill-rule="nonzero" fill="#3c9bf9" stroke="none" fill-opacity="0.39215686274509803" />
    <path d="M 541.5 200  A 4.5 4.5 0 0 1 546 195.5 L 1456 195.5  A 4.5 4.5 0 0 1 1460.5 200 L 1460.5 583  A 4.5 4.5 0 0 1 1456 587.5 L 546 587.5  A 4.5 4.5 0 0 1 541.5 583 L 541.5 200  Z " stroke-width="1" stroke="#1e73be" fill="none" stroke-opacity="0.9450980392156862" />
  </g>
</svg>