<?xml version="1.0" encoding="utf-8"?>
<svg version="1.1" xmlns:xlink="http://www.w3.org/1999/xlink" width="1920px" height="59px" xmlns="http://www.w3.org/2000/svg">
  <g transform="matrix(1 0 0 1 0 -1309 )">
    <path d="M 1 1314  A 4 4 0 0 1 4.999999999999999 1310 L 1915 1310  A 4 4 0 0 1 1919 1314 L 1919 1363  A 4 4 0 0 1 1915 1367 L 5 1367  A 4 4 0 0 1 1 1363 L 1 1314  Z " fill-rule="nonzero" fill="#1e73be" stroke="none" fill-opacity="0.5372549019607843" />
    <path d="M 0.5 1314  A 4.5 4.5 0 0 1 4.999999999999999 1309.5 L 1915 1309.5  A 4.5 4.5 0 0 1 1919.5 1314 L 1919.5 1363  A 4.5 4.5 0 0 1 1915 1367.5 L 5 1367.5  A 4.5 4.5 0 0 1 0.5 1363 L 0.5 1314  Z " stroke-width="1" stroke="#016fa0" fill="none" stroke-opacity="0.13725490196078433" />
  </g>
</svg>