<?xml version="1.0" encoding="utf-8"?>
<svg version="1.1" xmlns:xlink="http://www.w3.org/1999/xlink" width="516px" height="81px" xmlns="http://www.w3.org/2000/svg">
  <g transform="matrix(1 0 0 1 -266 -1394 )">
    <path d="M 267 1399  A 4 4 0 0 1 271 1395 L 777 1395  A 4 4 0 0 1 781 1399 L 781 1470  A 4 4 0 0 1 777 1474 L 271 1474  A 4 4 0 0 1 267 1470 L 267 1399  Z " fill-rule="nonzero" fill="#3c9bf9" stroke="none" fill-opacity="0.3764705882352941" />
    <path d="M 266.5 1399  A 4.5 4.5 0 0 1 271 1394.5 L 777 1394.5  A 4.5 4.5 0 0 1 781.5 1399 L 781.5 1470  A 4.5 4.5 0 0 1 777 1474.5 L 271 1474.5  A 4.5 4.5 0 0 1 266.5 1470 L 266.5 1399  Z " stroke-width="1" stroke="#1e73be" fill="none" stroke-opacity="0.9450980392156862" />
  </g>
</svg>