<?xml version="1.0" encoding="utf-8"?>
<svg version="1.1" xmlns:xlink="http://www.w3.org/1999/xlink" width="222px" height="53px" xmlns="http://www.w3.org/2000/svg">
  <defs>
    <mask fill="white" id="clip24">
      <path d="M 26.5 53  C 11.66 53  0 41.34  0 26.5  C 0 11.659999999999998  11.66 0  26.5 0  L 127.2857142857143 0  L 195.5 0  C 210.34 0  222 11.659999999999998  222 26.5  C 222 41.34  210.34 53  195.5 53  L 127.2857142857143 53  L 26.5 53  Z " fill-rule="evenodd" />
    </mask>
  </defs>
  <g>
    <path d="M 26.5 53  C 11.66 53  0 41.34  0 26.5  C 0 11.659999999999998  11.66 0  26.5 0  L 127.2857142857143 0  L 195.5 0  C 210.34 0  222 11.659999999999998  222 26.5  C 222 41.34  210.34 53  195.5 53  L 127.2857142857143 53  L 26.5 53  Z " fill-rule="nonzero" fill="#1d1d1d" stroke="none" />
    <path d="M 26.5 53  C 11.66 53  0 41.34  0 26.5  C 0 11.659999999999998  11.66 0  26.5 0  L 127.2857142857143 0  L 195.5 0  C 210.34 0  222 11.659999999999998  222 26.5  C 222 41.34  210.34 53  195.5 53  L 127.2857142857143 53  L 26.5 53  Z " stroke-width="6" stroke="#1d1d1d" fill="none" mask="url(#clip24)" />
  </g>
</svg>