<?xml version="1.0" encoding="utf-8"?>
<svg version="1.1" xmlns:xlink="http://www.w3.org/1999/xlink" width="281px" height="339px" xmlns="http://www.w3.org/2000/svg">
  <defs>
    <mask fill="white" id="clip19">
      <path d="M 28.1 11  L 131.73720593085886 11  L 140.5 0.6850785545078362  L 149.26275391832448 11  L 252.9 11  C 268.63599999999997 10.626959247648902  281 24.65454545454545  281 42.50783699059561  L 281 307.1191222570533  C 281 324.97241379310344  268.63599999999997 339  252.9 339  L 28.1 339  C 12.364000000000042 339  0 324.97241379310344  0 307.1191222570533  L 0 42.50783699059561  C 0 24.65454545454545  12.364000000000042 10.626959247648902  28.1 11  Z " fill-rule="evenodd" />
    </mask>
  </defs>
  <g transform="matrix(1 0 0 1 -46 0 )">
    <path d="M 28.1 11  L 131.73720593085886 11  L 140.5 0.6850785545078362  L 149.26275391832448 11  L 252.9 11  C 268.63599999999997 10.626959247648902  281 24.65454545454545  281 42.50783699059561  L 281 307.1191222570533  C 281 324.97241379310344  268.63599999999997 339  252.9 339  L 28.1 339  C 12.364000000000042 339  0 324.97241379310344  0 307.1191222570533  L 0 42.50783699059561  C 0 24.65454545454545  12.364000000000042 10.626959247648902  28.1 11  Z " fill-rule="nonzero" fill="#ffffff" stroke="none" transform="matrix(1 0 0 1 46 0 )" />
    <path d="M 28.1 11  L 131.73720593085886 11  L 140.5 0.6850785545078362  L 149.26275391832448 11  L 252.9 11  C 268.63599999999997 10.626959247648902  281 24.65454545454545  281 42.50783699059561  L 281 307.1191222570533  C 281 324.97241379310344  268.63599999999997 339  252.9 339  L 28.1 339  C 12.364000000000042 339  0 324.97241379310344  0 307.1191222570533  L 0 42.50783699059561  C 0 24.65454545454545  12.364000000000042 10.626959247648902  28.1 11  Z " stroke-width="2" stroke="#f4f4f4" fill="none" transform="matrix(1 0 0 1 46 0 )" mask="url(#clip19)" />
  </g>
</svg>